<svg width="93" height="94" viewBox="0 0 93 94" fill="none" xmlns="http://www.w3.org/2000/svg">
<rect x="1.5" y="1.5" width="90" height="91" rx="45" fill="white"/>
<rect x="1.5" y="1.5" width="90" height="91" rx="45" stroke="black" stroke-width="3"/>
<path d="M42.4526 18.0988C42.5653 18.1466 42.7101 18.1307 42.7584 18.0829C42.8228 18.035 42.7262 17.9872 42.5492 18.0031C42.3722 18.0031 42.3239 18.051 42.4526 18.0988Z" fill="black"/>
<path d="M43.4182 18.0988C43.7079 18.1307 44.1424 18.1307 44.3838 18.0988C44.6252 18.0669 44.3838 18.035 43.8528 18.035C43.3217 18.035 43.1286 18.0669 43.4182 18.0988Z" fill="black"/>
<path d="M45.3813 18.322C45.3813 18.4018 45.5262 18.4655 45.7032 18.4655C45.8802 18.4655 46.0251 18.4337 46.0251 18.4018C46.0251 18.3699 45.8802 18.3061 45.7032 18.2583C45.5262 18.2104 45.3813 18.2423 45.3813 18.322Z" fill="black"/>
<path d="M41.0044 18.4177C41.1975 18.4496 41.5194 18.4496 41.7286 18.4177C41.9217 18.3858 41.7608 18.3539 41.3585 18.3539C40.9561 18.3539 40.7952 18.3858 41.0044 18.4177Z" fill="black"/>
<path d="M46.9585 18.5772C47.0711 18.625 47.216 18.6091 47.2642 18.5612C47.3286 18.5134 47.2321 18.4656 47.055 18.4815C46.878 18.4815 46.8297 18.5293 46.9585 18.5772Z" fill="black"/>
<path d="M39.1537 18.8961C39.2985 18.928 39.556 18.928 39.7169 18.8961C39.8618 18.8482 39.733 18.8164 39.4273 18.8164C39.1215 18.8164 38.9927 18.8482 39.1537 18.8961Z" fill="black"/>
<path d="M47.6023 18.8961C47.6989 18.928 47.892 18.928 48.0046 18.8961C48.1012 18.8482 48.0207 18.8164 47.7954 18.8164C47.5701 18.8164 47.4897 18.8482 47.6023 18.8961Z" fill="black"/>
<path d="M37.5282 19.502C37.2707 19.805 37.3511 19.805 37.9144 19.502C38.2845 19.3107 38.3167 19.2628 38.0592 19.2628C37.8822 19.2788 37.6408 19.3745 37.5282 19.502Z" fill="black"/>
<path d="M49.2922 19.5977C49.6462 19.7731 49.9681 19.8847 50.0163 19.8209C50.0646 19.7731 49.952 19.6934 49.7589 19.6296C49.5657 19.5817 49.4048 19.4861 49.4048 19.4063C49.4048 19.3266 49.2439 19.2628 49.0508 19.2628C48.745 19.2788 48.7933 19.3426 49.2922 19.5977Z" fill="black"/>
<path d="M41.4547 20.1558C38.3004 20.8414 35.1784 22.6273 32.7483 25.1786C31.6701 26.3267 30.3987 28.1126 30.1734 28.7983C30.0929 29.1013 29.9803 29.1491 29.7228 29.0694C28.9825 28.8461 26.6651 28.7983 25.7639 28.9896C22.5453 29.6912 19.8416 32.7368 18.7956 36.8349C18.4255 38.3337 18.4737 39.4978 18.9565 40.4705L19.2623 41.0923L18.3611 41.6185C17.2667 42.2564 16.5104 43.3088 16.2368 44.5844C16.1241 45.0787 15.9793 45.5571 15.8988 45.6528C15.5126 46.0833 15.8827 50.1335 16.5265 52.5094C17.2185 55.0766 19.1657 57.5801 21.4831 58.9036C22.4809 59.4617 22.6097 59.6052 22.7062 60.0995C22.9315 61.4708 24.2672 62.9856 26.0053 63.7829C27.1801 64.3251 29.3688 64.7556 30.2539 64.6121C30.9459 64.5005 30.9137 64.4048 31.2195 67.1793C31.654 71.3252 32.2333 75.2 32.4747 75.7102C32.861 76.5075 34.2289 77.831 35.3071 78.421C36.0152 78.8196 36.2405 79.0428 36.321 79.3936C36.4175 79.872 36.6911 80.0315 36.6911 79.6169C36.6911 79.3458 37.1256 79.3139 37.7211 79.5212C37.9786 79.6328 38.1395 79.8242 38.1717 80.1271L38.236 80.5736L38.4292 80.1431C38.574 79.7763 38.6867 79.7126 39.0568 79.7763C39.2982 79.8082 39.781 79.888 40.1189 79.9358C40.4891 79.9996 40.7144 80.1112 40.7144 80.2547C40.7144 80.5736 41.0362 80.5577 41.2937 80.2069C41.4547 79.9836 41.5351 79.9677 41.6961 80.1431C41.8087 80.2388 42.034 80.3344 42.1789 80.3344C42.3237 80.3344 42.4846 80.4461 42.549 80.5736C42.6456 80.8447 43.1283 80.9085 43.1283 80.6533C43.1283 80.5577 43.2249 80.4939 43.3536 80.4939C43.4824 80.4939 43.6111 80.3823 43.6755 80.2547C43.7399 80.0793 44.0296 80.0155 44.9147 80.0315C45.6228 80.0474 46.1056 79.9836 46.186 79.872C46.2343 79.7604 46.4113 79.7285 46.5562 79.7923C46.7171 79.8401 46.9263 79.8082 47.0551 79.7126C47.2321 79.569 47.3447 79.6169 47.6183 79.9677C47.9402 80.3982 47.9563 80.4142 48.1977 80.1112C48.3264 79.9358 48.4391 79.6328 48.4391 79.4415C48.4391 79.1704 48.6322 79.0428 49.5173 78.7399C52.0922 77.8788 56.4051 74.9927 57.8052 73.2068L58.4812 72.3297L59.2214 72.4254C60.2514 72.553 61.6676 72.2979 62.8746 71.7398C64.1459 71.1498 65.8518 69.5712 66.238 68.6144L66.5277 67.9447L67.8956 67.9607C69.006 67.9607 69.4245 67.8969 70.0038 67.6099C71.0177 67.1315 71.8062 66.4458 72.6592 65.3296C74.1236 63.464 74.6547 61.5186 74.1075 60.0835C73.6087 58.7601 73.6087 58.8079 74.7352 57.612C75.4433 56.8785 76.0387 56.0493 76.4732 55.1723C77.1009 53.9285 77.1491 53.7531 77.1491 52.5413C77.133 50.3089 76.1514 48.7303 73.9949 47.4546C73.319 47.056 72.9488 46.7371 73.0132 46.6255C73.0776 46.5298 73.319 46.179 73.5604 45.8441C73.8018 45.5093 74.2363 44.6801 74.5421 44.0104C75.0249 42.8623 75.0731 42.655 75.0731 41.0286C75.0731 39.434 75.0409 39.1948 74.6225 38.3656C73.6248 36.3565 71.3395 34.8098 69.0543 34.6184L67.9117 34.5228V33.853C67.9117 32.9601 67.3645 30.8553 66.8335 29.7869C66.576 29.2288 65.9484 28.4475 65.1437 27.6661C64.0976 26.6297 63.5988 26.2789 62.3918 25.7208C60.4123 24.7959 59.3341 24.5249 57.1937 24.4132C55.8902 24.3495 55.0855 24.3973 54.1199 24.5886C53.4118 24.7322 52.7681 24.8438 52.6716 24.8438C52.5911 24.8438 52.3658 24.5568 52.1727 24.2219C51.6094 23.2333 49.6621 21.559 48.3747 20.9371C46.2987 19.9644 43.756 19.6774 41.4547 20.1558ZM40.1189 24.9554C38.6545 26.7891 38.0751 27.3951 37.9303 27.2516C37.5119 26.837 38.4613 25.4816 39.7971 24.6046C40.2477 24.3016 40.65 24.0784 40.6822 24.1103C40.7144 24.1581 40.4569 24.5249 40.1189 24.9554ZM44.2388 24.6365C43.8525 24.9713 43.0479 25.6889 42.4685 26.231C41.7282 26.9327 41.3259 27.2197 41.1328 27.1399C40.7788 27.0124 40.7948 26.9008 41.342 26.1673C41.9214 25.37 42.7904 24.7003 43.6755 24.3495C44.8342 23.887 45.0273 23.9827 44.2388 24.6365ZM55.8258 31.1263C56.0672 31.4134 55.7453 32.2266 55.1821 32.8166L54.7958 33.2152L54.7476 32.8485C54.6671 32.3382 55.1821 30.9031 55.4396 30.9031C55.5522 30.9031 55.7292 30.9988 55.8258 31.1263ZM57.419 32.6731C57.3385 33.4703 56.9201 34.2357 56.4856 34.3792C56.3247 34.443 56.3086 34.2995 56.3891 33.7574C56.6787 31.7961 56.6626 31.8598 57.0811 31.8598C57.4834 31.8598 57.4834 31.8917 57.419 32.6731ZM60.6698 32.6571C61.2814 33.0398 60.7664 35.0171 59.7847 36.1173C59.5755 36.3565 59.318 36.6595 59.2214 36.7551C58.9961 37.0262 58.5777 37.0103 58.5777 36.7392C58.5777 36.6276 58.6904 36.4362 58.8191 36.3246C58.9479 36.213 59.0605 36.0376 59.0605 35.926C59.0605 35.8303 59.2375 35.3041 59.4628 34.7619C59.6881 34.2198 59.8652 33.5341 59.8652 33.2471C59.8652 32.4977 60.1227 32.3063 60.6698 32.6571ZM50.0806 43.9625C50.6438 44.1379 51.6094 44.3771 52.2209 44.4728C53.2992 44.6641 53.3796 44.712 54.2165 45.6049C54.6832 46.1152 55.2786 46.6414 55.52 46.769C55.9384 46.9922 55.9706 47.056 55.8258 47.5184C55.6005 48.2997 55.6488 50.0378 55.9224 50.9308C56.0511 51.3613 56.4373 52.1745 56.7753 52.7486C57.3546 53.6894 57.3868 53.8169 57.242 54.3431C56.9845 55.2361 57.0489 57.3568 57.3707 58.1701C57.5317 58.5687 57.6926 59.1587 57.7248 59.4776C57.8052 60.1154 57.757 60.0835 59.0283 60.1473C59.2375 60.1633 59.2858 60.0516 59.2536 59.7327C59.2053 59.366 59.3019 59.2544 59.9778 58.9036C60.4123 58.6963 61.04 58.473 61.3618 58.4092C62.5044 58.186 63.5666 59.2544 64.1942 61.2795C64.6126 62.6029 64.6126 63.4481 64.2264 64.5642C63.3735 67.0518 62.2148 68.7898 60.9434 69.4755C60.2031 69.8901 59.9939 69.8901 60.0422 69.5233C60.1387 68.5666 59.6881 68.3593 59.3824 69.2363C59.1893 69.8422 57.5639 72.3297 57.1615 72.6487C57.0167 72.7603 56.4212 73.2705 55.8419 73.7808C53.5567 75.8059 52.06 76.8105 49.9196 77.7034L48.5839 78.2615L48.4391 77.8469C48.1816 77.1932 47.7149 77.4164 47.3769 78.3412C47.2804 78.6123 47.2482 78.5964 47.1194 78.1499C46.9746 77.5918 46.7171 77.4642 46.5723 77.8629C46.4435 78.1658 46.186 78.1658 46.186 77.8629C46.186 77.4802 45.9125 77.5918 45.7998 78.0223C45.7354 78.2456 45.5906 78.421 45.4618 78.421C45.317 78.421 45.14 78.5964 45.0595 78.8196C44.9308 79.1704 44.802 79.2182 44.1744 79.2182C43.5468 79.2182 43.418 79.1704 43.2893 78.8196C43.2088 78.5964 43.0157 78.421 42.8709 78.421C42.726 78.421 42.5168 78.3093 42.4042 78.1499C42.1145 77.7672 41.8409 78.0383 41.8409 78.7558C41.8409 79.2023 41.7765 79.3777 41.5995 79.3777C41.4225 79.3777 41.3581 79.2023 41.3581 78.7399C41.3581 78.2934 41.2937 78.1021 41.1328 78.1021C40.988 78.1021 40.8592 78.3412 40.7948 78.7399C40.7144 79.2182 40.6178 79.3777 40.3764 79.3777C40.1833 79.3777 40.0707 79.2661 40.0707 79.0588C40.0707 78.8834 39.958 78.7399 39.8293 78.7399C39.7005 78.7399 39.5879 78.8515 39.5879 78.9791C39.5879 79.2661 38.7832 79.3139 38.7671 79.0109C38.751 78.9153 38.7349 78.6761 38.7188 78.5007C38.6867 78.0702 38.1395 77.9745 38.1395 78.405C38.1395 78.7877 37.8659 78.8196 37.2544 78.5485C36.9486 78.405 36.852 78.2456 36.852 77.831C36.852 77.4164 36.7877 77.3048 36.5302 77.3048C36.321 77.3048 36.2083 77.4164 36.2083 77.6237C36.2083 78.1339 35.9669 78.0064 34.8082 76.9221C32.9253 75.1681 32.6357 74.307 32.2655 69.4914C31.9758 65.7761 31.0102 58.3136 30.6723 57.2612C30.5918 56.9901 30.6401 56.9582 31.0585 57.022C31.4287 57.0698 31.8471 56.8944 32.9736 56.1769C33.7783 55.6826 34.6473 55.0128 34.9048 54.6939C35.9347 53.3864 36.3049 52.3499 35.8543 51.9832C35.7416 51.9034 35.291 51.7759 34.8404 51.728C34.1484 51.6324 33.9231 51.6802 33.2311 52.031C32.7966 52.2702 32.3621 52.5572 32.2977 52.6848C32.0563 53.1153 31.9115 52.908 31.8793 52.1267C31.8793 51.6802 31.8471 51.2656 31.831 51.1859C31.7988 51.0902 32.1368 50.7873 32.5713 50.5002C33.8265 49.6551 34.599 48.3316 34.9852 46.3544C35.0657 45.9717 35.1623 45.9239 35.9991 45.8282C37.3026 45.6847 39.4108 44.6163 40.1994 43.7393L40.7948 43.0536L42.2915 43.229C44.2227 43.4523 45.5745 43.245 46.6205 42.5593L47.3769 42.081L48.2299 42.8623C48.8253 43.4044 49.3725 43.7234 50.0806 43.9625ZM69.4888 49.1927C69.6015 50.0059 68.2336 51.6962 67.0749 52.1905C65.8518 52.6848 65.5782 52.3818 66.6725 51.744C67.6381 51.1859 68.5072 50.1813 68.7164 49.4C68.8451 48.9216 68.9739 48.7622 69.167 48.7941C69.3118 48.8259 69.4566 49.0014 69.4888 49.1927ZM71.1303 51.1221C71.1303 51.8237 69.5049 53.0675 68.5876 53.0675C68.0405 53.0675 68.1692 52.7964 68.9256 52.334C69.6498 51.8875 70.3096 51.2018 70.3257 50.8829C70.3418 50.4046 71.1303 50.6278 71.1303 51.1221Z" fill="black"/>
<path d="M45.8644 49.097C44.1907 49.2884 42.3722 50.1973 41.9538 51.0424C41.6802 51.5845 41.6802 51.6802 41.8894 52.0151C42.3078 52.6369 43.2412 52.7805 46.5081 52.7007C48.1496 52.6688 49.6141 52.5732 49.7589 52.5253C50.4509 52.2224 50.6602 50.5959 50.113 49.8146C49.5014 48.9216 48.6324 48.7781 45.8644 49.097Z" fill="black"/>
<path d="M46.009 54.6142C45.8802 54.9969 45.848 55.858 45.8963 57.1814C45.9929 59.3979 46.0894 59.6052 47.0872 59.6052C47.8919 59.6052 48.2781 59.0152 48.2781 57.7714C48.2781 56.8306 48.2459 56.7669 47.8758 56.6712C47.3769 56.5436 47.3447 56.2885 47.8436 56.2247C48.1493 56.1769 48.1976 56.0652 48.2459 55.4274C48.3103 54.4388 47.924 54.0242 46.9263 54.0242C46.2504 54.0242 46.2021 54.0561 46.009 54.6142Z" fill="black"/>
<path d="M38.1395 56.6393C38.1395 56.6712 37.9947 57.4366 37.8177 58.3455C37.528 59.8284 37.2544 60.833 36.6589 62.8262C36.4176 63.6394 36.7072 64.2772 37.4475 64.628C37.8981 64.8513 38.3165 64.8832 39.4109 64.8194C41.2455 64.7237 42.7582 64.0699 43.1766 63.2089C43.5307 62.4594 43.5307 62.1246 43.1284 61.6303C42.7743 61.1838 41.7444 60.9127 41.4708 61.1838C41.3742 61.2795 41.1328 61.3592 40.9397 61.3592C40.6661 61.3592 40.6178 61.4389 40.6822 61.7578C40.7144 61.9811 40.6822 62.1565 40.5857 62.1565C40.5052 62.1565 40.4408 62.0289 40.4569 61.8694C40.473 61.6462 40.3282 61.5984 39.5074 61.5984C38.8154 61.5984 38.5579 61.6621 38.5901 61.7897C38.6062 61.9013 38.5579 61.997 38.4614 61.997C38.3809 61.997 38.3004 62.1086 38.3004 62.2362C38.3004 62.3638 38.2361 62.4754 38.1395 62.4754C38.059 62.4754 37.9786 62.7624 37.9786 63.1132C37.9786 63.7351 37.9947 63.751 38.5257 63.751C38.8315 63.751 39.1373 63.8148 39.1856 63.9105C39.2982 64.0859 38.751 64.1178 38.1878 63.9743C37.882 63.8945 37.8177 63.767 37.8177 63.2567C37.8177 62.9218 37.882 62.4913 37.9625 62.284C38.1717 61.7738 38.574 59.9081 38.7832 58.5209C39.0085 57.1336 38.912 56.5755 38.4614 56.5755C38.2844 56.5755 38.1395 56.6074 38.1395 56.6393ZM42.2754 61.7738C42.7099 61.8854 42.8548 62.2362 42.5812 62.5073C41.7444 63.3045 40.9558 63.8148 40.3443 63.9743C39.9902 64.054 39.8937 64.038 39.9419 63.8786C39.9902 63.767 40.119 63.6713 40.2477 63.6553C40.7305 63.6235 41.0845 63.4162 42.1467 62.5232C42.4846 62.2362 42.5168 62.1724 42.2915 62.1565C42.1306 62.1565 42.0019 62.0767 42.0019 61.9811C42.0019 61.8854 41.857 61.8375 41.68 61.8854C41.503 61.9332 41.3581 61.9013 41.3581 61.8216C41.3581 61.6621 41.7605 61.6303 42.2754 61.7738ZM39.7488 63.4321C39.7488 63.5118 39.6362 63.5916 39.5074 63.5916C39.3787 63.5916 39.266 63.5118 39.266 63.4321C39.266 63.3364 39.3787 63.2727 39.5074 63.2727C39.6362 63.2727 39.7488 63.3364 39.7488 63.4321Z" fill="black"/>
<path d="M33.7142 57.5801C33.0866 58.5368 33.2958 60.9127 34.0682 61.5186C34.5349 61.8854 35.0821 61.9332 35.3718 61.6462C35.4844 61.5346 35.5649 61.0403 35.5649 60.5141C35.5649 59.7168 35.5166 59.5573 35.243 59.4935C34.8729 59.3979 34.8085 59.0471 35.1626 58.9036C35.4523 58.7919 35.4844 58.0106 35.2109 57.6598C35.0982 57.5163 34.7763 57.3568 34.4867 57.2931C34.0522 57.2133 33.9395 57.2612 33.7142 57.5801Z" fill="black"/>
<path d="M61.2332 60.0676C60.2354 60.6735 59.3342 62.0448 59.4147 62.8262C59.4951 63.6075 59.9457 63.6075 60.1871 62.8421C60.2998 62.5073 60.4929 62.0927 60.6056 61.9332C60.8148 61.6303 60.8309 61.6462 60.9596 62.0129C61.0401 62.2202 61.1849 63.0335 61.2976 63.8307C61.4102 64.6121 61.5229 65.2818 61.5551 65.3296C61.7482 65.521 62.1022 65.1223 62.2632 64.5005C62.5046 63.6713 62.2792 62.2681 61.7804 61.4708C61.4102 60.833 61.6194 60.5619 62.4563 60.5619C63.1966 60.5619 63.2609 60.3387 62.6011 60.0038C62.0057 59.7008 61.8125 59.7008 61.2332 60.0676Z" fill="black"/>
<path d="M47.1358 61.407C46.3794 61.8057 46.0897 62.3159 46.6208 62.3159C46.7978 62.3159 47.0714 62.2043 47.2484 62.0767C47.6186 61.8057 48.906 61.7578 49.4532 62.0129C49.6785 62.1086 49.936 62.3638 50.0325 62.571C50.2417 63.0494 50.5314 63.0654 50.5314 62.6189C50.5314 61.2635 48.6807 60.6097 47.1358 61.407Z" fill="black"/>
<path d="M44.0941 64.054C43.9009 64.4367 43.8848 64.9788 44.078 65.0904C44.3194 65.234 44.7217 65.0267 44.8182 64.6918C45.0596 63.9583 44.4481 63.4162 44.0941 64.054Z" fill="black"/>
<path d="M47.7634 64.054C46.5403 64.4526 44.8022 65.4094 42.6941 66.8764C40.4088 68.455 37.6086 69.8103 36.3856 69.922C35.1625 70.0336 35.0176 69.8582 35.3234 68.6782C35.6292 67.562 35.6292 67.3228 35.2912 67.1953C34.9211 67.0518 34.7441 67.3069 34.2935 68.7101L33.9072 69.8582L34.3417 70.2409C34.5831 70.4322 35.0659 70.6555 35.42 70.7033C35.935 70.783 36.0476 70.8628 36.0476 71.1817C36.0476 71.7557 36.3695 72.3138 36.804 72.5051C37.0937 72.6327 37.1741 72.7603 37.0937 72.9676C36.7879 73.6532 36.9166 73.8446 37.8983 74.2592C38.7834 74.6259 39.057 74.6578 41.2779 74.6737C43.5309 74.6737 43.7562 74.6419 44.7379 74.2432C45.3172 74.02 45.961 73.7808 46.1863 73.717C47.4415 73.3503 49.2118 71.8514 50.3222 70.1771C50.9015 69.332 50.9337 69.2044 50.9176 68.1361C50.9015 67.259 50.7889 66.7647 50.4509 66.0153C50.2095 65.4731 49.9038 64.9469 49.7911 64.8513C49.4371 64.5642 49.6945 64.3888 50.4509 64.3888C50.8372 64.3888 51.1912 64.3251 51.2556 64.2453C51.5774 63.7191 49.2278 63.5916 47.7634 64.054ZM49.3566 65.6804C49.9681 66.9082 50.0003 67.0996 49.5497 67.0996C49.3566 67.0996 48.7772 67.4982 48.214 68.0244C47.2645 68.9014 47.0875 68.9812 44.7218 69.7785C43.3539 70.2409 41.9216 70.6874 41.5354 70.7671C41.1491 70.8468 40.602 71.07 40.3123 71.2454C40.0065 71.4368 39.5076 71.5644 39.0892 71.5644C38.703 71.5803 38.2041 71.676 37.9788 71.8035C37.3511 72.1543 37.0615 72.0906 36.8684 71.5484C36.5948 70.7511 36.6431 70.6714 37.6247 70.4003C38.7673 70.0814 41.5675 68.726 42.6941 67.9447C45.7356 65.808 46.669 65.2499 47.9404 64.7875C48.2623 64.6599 48.6002 64.5961 48.6807 64.6121C48.7772 64.628 49.0669 65.1064 49.3566 65.6804ZM50.1452 68.1361C50.2417 68.7739 50.1934 68.9493 49.7911 69.5233C48.2623 71.7079 46.8461 72.8081 44.7057 73.5097C43.2251 73.9721 42.855 74.0359 41.1974 74.0359C40.1835 74.0359 39.0409 73.9403 38.6708 73.8286C38.0432 73.6373 38.011 73.6054 38.0271 73.0314C38.0271 72.2022 38.2202 72.0427 39.1697 72.0427C39.7812 72.0427 40.1513 71.9471 40.5859 71.6441C40.9077 71.4208 41.3422 71.2454 41.5354 71.2454C41.8733 71.2454 45.3011 70.0495 45.623 69.8103C45.8 69.6828 46.6208 69.4276 47.345 69.2682C47.5864 69.2044 48.2301 68.7739 48.7772 68.2955C49.3244 67.8171 49.8233 67.4185 49.9038 67.4185C49.9681 67.4185 50.0808 67.7374 50.1452 68.1361Z" fill="black"/>
<path d="M43.193 64.4686C43.1286 64.5961 42.9194 64.7078 42.7102 64.7078C42.4849 64.7078 42.2596 64.8513 42.1469 65.0586C41.8734 65.5848 41.8573 65.5848 41.6159 65.2659C41.4228 65.0107 41.3584 64.9948 41.1492 65.1702C41.0043 65.2818 40.8112 65.3296 40.7307 65.2818C40.5054 65.1383 40.3284 65.505 40.5376 65.7123C40.6342 65.808 40.7147 66.0472 40.7147 66.2545C40.7147 66.6691 40.9078 66.7328 41.1974 66.382C41.3101 66.2545 41.5676 66.1429 41.7607 66.1429C42.0826 66.1429 43.5631 65.6007 43.7402 65.4253C43.7723 65.4094 43.7402 65.1223 43.6919 64.8034C43.5792 64.2134 43.3539 64.054 43.193 64.4686Z" fill="black"/>
<path d="M39.0732 65.6167C38.6547 65.6804 38.6226 65.7442 38.6226 66.398C38.6226 67.1155 38.7352 67.2431 39.0732 66.9082C39.2019 66.7807 39.3146 66.7807 39.5077 66.9401C39.9261 67.275 40.1675 66.9082 39.9744 66.1907C39.8134 65.5688 39.7491 65.521 39.0732 65.6167Z" fill="black"/>
<path d="M36.8037 66.1269C36.4658 66.685 36.4497 67.0996 36.7555 67.0996C37.0773 67.0996 37.4957 66.4777 37.4957 66.0312C37.4957 65.521 37.1417 65.5688 36.8037 66.1269Z" fill="black"/>
<path d="M37.9785 66.5734C37.8497 66.8285 37.7371 67.0677 37.7049 67.1315C37.6727 67.1953 37.721 67.275 37.8015 67.3388C38.0268 67.4663 38.5257 66.4618 38.3486 66.2864C38.2521 66.1907 38.1072 66.3183 37.9785 66.5734Z" fill="black"/>
<path d="M45.8805 74.2113C43.3056 75.2956 41.1008 75.6624 39.6363 75.2478C38.9604 75.0564 38.7995 75.2956 39.3789 75.6624C39.9904 76.061 42.4687 76.061 44.0137 75.6464C45.7678 75.184 47.9565 74.0678 47.9565 73.6213C47.9565 73.3822 47.6346 73.4778 45.8805 74.2113Z" fill="black"/>
<path d="M36.3372 20.1717C36.4337 20.2036 36.6269 20.2036 36.7395 20.1717C36.8361 20.1239 36.7556 20.092 36.5303 20.092C36.305 20.092 36.2245 20.1239 36.3372 20.1717Z" fill="black"/>
<path d="M50.0647 20.1079C50.0969 20.1239 50.2578 20.2514 50.4188 20.3631C50.6602 20.5544 50.6923 20.5544 50.5958 20.3152C50.5475 20.1717 50.3866 20.0601 50.2417 20.0601C50.113 20.0601 50.0325 20.076 50.0647 20.1079Z" fill="black"/>
<path d="M34.8407 21.0168C34.7925 21.1125 34.8568 21.1285 34.9856 21.0806C35.2753 20.969 35.3235 20.8574 35.0982 20.8574C35.0017 20.8574 34.889 20.9212 34.8407 21.0168Z" fill="black"/>
<path d="M34.3576 21.3357C34.3094 21.4155 34.3737 21.4952 34.5186 21.4952C34.6634 21.4952 34.7278 21.4155 34.6795 21.3357C34.6312 21.2401 34.5508 21.1763 34.5186 21.1763C34.4864 21.1763 34.4059 21.2401 34.3576 21.3357Z" fill="black"/>
<path d="M51.4971 21.3198C51.4971 21.3995 51.6097 21.4952 51.7224 21.543C51.8833 21.6068 51.9316 21.559 51.8672 21.3995C51.7707 21.1604 51.4971 21.0966 51.4971 21.3198Z" fill="black"/>
<path d="M33.7139 21.8141C33.6656 21.8938 33.6817 21.9736 33.7782 21.9736C33.8587 21.9736 33.9874 21.8938 34.0357 21.8141C34.084 21.7184 34.0679 21.6547 33.9714 21.6547C33.8909 21.6547 33.7621 21.7184 33.7139 21.8141Z" fill="black"/>
<path d="M52.4624 22.149C52.4624 22.2287 52.5429 22.2606 52.6233 22.2128C52.7199 22.1649 52.7843 22.0852 52.7843 22.0374C52.7843 22.0055 52.7199 21.9736 52.6233 21.9736C52.5429 21.9736 52.4624 22.0533 52.4624 22.149Z" fill="black"/>
<path d="M32.9897 22.4679C32.9897 22.5476 33.0702 22.5795 33.1507 22.5317C33.2472 22.4838 33.3116 22.4041 33.3116 22.3563C33.3116 22.3244 33.2472 22.2925 33.1507 22.2925C33.0702 22.2925 32.9897 22.3722 32.9897 22.4679Z" fill="black"/>
<path d="M52.6235 22.4998C52.6235 22.6752 53.2512 23.329 53.3316 23.2333C53.3638 23.2014 53.219 22.9941 53.0098 22.7709C52.8006 22.5636 52.6235 22.436 52.6235 22.4998Z" fill="black"/>
<path d="M32.3946 22.9941C31.9762 23.4246 31.8957 23.7116 32.282 23.4087C32.5073 23.2173 32.9096 22.6114 32.7969 22.6114C32.7648 22.6114 32.5877 22.7868 32.3946 22.9941Z" fill="black"/>
<path d="M56.0511 22.723C56.5661 22.7549 57.3547 22.7549 57.8214 22.723C58.2881 22.6911 57.8696 22.6752 56.888 22.6752C55.9224 22.6752 55.5361 22.6911 56.0511 22.723Z" fill="black"/>
<path d="M53.5889 22.9303C53.5889 23.01 53.6532 23.0898 53.7337 23.0898C53.8303 23.0898 53.9429 23.01 53.9912 22.9303C54.0395 22.8346 53.9751 22.7709 53.8464 22.7709C53.7015 22.7709 53.5889 22.8346 53.5889 22.9303Z" fill="black"/>
<path d="M59.3506 22.8825C59.4632 22.9303 59.6081 22.9144 59.6563 22.8665C59.7207 22.8187 59.6242 22.7709 59.4471 22.7868C59.2701 22.7868 59.2218 22.8346 59.3506 22.8825Z" fill="black"/>
<path d="M60.3157 23.2014C60.4122 23.2333 60.6054 23.2333 60.718 23.2014C60.8146 23.1536 60.7341 23.1217 60.5088 23.1217C60.2835 23.1217 60.203 23.1536 60.3157 23.2014Z" fill="black"/>
<path d="M61.2815 23.5203C61.3781 23.5522 61.5712 23.5522 61.6838 23.5203C61.7804 23.4725 61.6999 23.4406 61.4746 23.4406C61.2493 23.4406 61.1689 23.4725 61.2815 23.5203Z" fill="black"/>
<path d="M63.5345 24.3973C63.615 24.477 63.792 24.5249 63.9046 24.493C64.0334 24.4451 63.9529 24.3814 63.7437 24.3176C63.4701 24.2538 63.4057 24.2697 63.5345 24.3973Z" fill="black"/>
<path d="M30.6884 24.8119C30.2861 25.2424 30.3504 25.3859 30.7689 25.0032C30.962 24.8278 31.0746 24.6524 31.0263 24.6046C30.9942 24.5568 30.8332 24.6524 30.6884 24.8119Z" fill="black"/>
<path d="M64.6128 25.0032C64.6611 25.083 64.8703 25.2424 65.0634 25.3381L65.4175 25.5135L65.0634 25.1786C64.6933 24.8278 64.4358 24.7322 64.6128 25.0032Z" fill="black"/>
<path d="M66.1255 26.1832C66.56 26.6456 66.6566 26.6935 66.5278 26.3905C66.4957 26.2789 66.3025 26.0875 66.0933 25.9759C65.7554 25.7686 65.7554 25.7846 66.1255 26.1832Z" fill="black"/>
<path d="M24.6698 27.5067C24.8146 27.5386 25.0721 27.5386 25.233 27.5067C25.3779 27.4589 25.2491 27.427 24.9434 27.427C24.6376 27.427 24.5089 27.4589 24.6698 27.5067Z" fill="black"/>
<path d="M28.6126 27.5067C28.7091 27.5386 28.9022 27.5386 29.0149 27.5067C29.1115 27.4589 29.031 27.427 28.8057 27.427C28.5804 27.427 28.4999 27.4589 28.6126 27.5067Z" fill="black"/>
<path d="M23.3823 27.8256C23.1731 27.8575 23.0122 27.9691 23.0122 28.0489C23.0122 28.2402 23.0444 28.2402 23.672 27.9532C24.2031 27.7299 24.1065 27.6821 23.3823 27.8256Z" fill="black"/>
<path d="M22.4487 28.3518C22.4004 28.4315 22.4165 28.5113 22.5131 28.5113C22.5936 28.5113 22.7223 28.4315 22.7706 28.3518C22.8189 28.2561 22.8028 28.1924 22.7062 28.1924C22.6258 28.1924 22.497 28.2561 22.4487 28.3518Z" fill="black"/>
<path d="M68.0728 28.5751C68.0728 28.7026 68.1371 28.8461 68.2176 28.894C68.2981 28.9577 68.3302 28.8461 68.282 28.6707C68.1854 28.304 68.0728 28.2561 68.0728 28.5751Z" fill="black"/>
<path d="M21.4831 28.9896C21.0486 29.468 21.29 29.5318 21.7245 29.0694C21.9337 28.8461 22.0302 28.6707 21.9337 28.6707C21.8532 28.6707 21.644 28.8142 21.4831 28.9896Z" fill="black"/>
<path d="M68.5557 29.7231C68.5557 29.8348 68.6683 30.1537 68.7971 30.4407C69.0063 30.9509 69.0224 30.9509 69.0385 30.5683C69.0385 30.345 68.9258 30.0261 68.7971 29.8507C68.6683 29.6912 68.5557 29.6275 68.5557 29.7231Z" fill="black"/>
<path d="M19.681 30.7915C19.3913 31.0785 19.1499 31.4134 19.1499 31.525C19.1499 31.7323 20.2603 30.6001 20.2764 30.3769C20.2764 30.2015 20.2442 30.2334 19.681 30.7915Z" fill="black"/>
<path d="M69.0708 31.4612C69.0708 31.7163 69.103 31.812 69.1513 31.6526C69.1835 31.509 69.1835 31.2858 69.1513 31.1742C69.103 31.0785 69.0708 31.1901 69.0708 31.4612Z" fill="black"/>
<path d="M18.6832 32.0671C18.6832 32.2425 18.5062 32.5933 18.3291 32.8644L17.9751 33.3747L18.4096 32.9282C18.6993 32.6412 18.828 32.3701 18.7798 32.1309C18.7315 31.8598 18.6993 31.8439 18.6832 32.0671Z" fill="black"/>
<path d="M69.3926 32.4977C69.3926 32.7209 69.4248 32.8006 69.473 32.689C69.5052 32.5933 69.5052 32.402 69.473 32.2904C69.4248 32.1947 69.3926 32.2744 69.3926 32.4977Z" fill="black"/>
<path d="M69.3604 33.1993C69.3604 33.3906 69.5052 33.4544 70.0524 33.4385C70.5995 33.4066 70.6317 33.3906 70.2455 33.3428C69.988 33.2949 69.6661 33.1993 69.5696 33.1036C69.4086 32.976 69.3604 33.0079 69.3604 33.1993Z" fill="black"/>
<path d="M17.8786 33.7095C17.8786 33.8849 17.9269 33.9328 17.9752 33.8052C18.0235 33.6936 18.0074 33.5501 17.9591 33.5022C17.9108 33.4385 17.8626 33.5341 17.8786 33.7095Z" fill="black"/>
<path d="M71.259 33.566C71.3556 33.5979 71.5487 33.5979 71.6614 33.566C71.7579 33.5182 71.6775 33.4863 71.4522 33.4863C71.2269 33.4863 71.1464 33.5182 71.259 33.566Z" fill="black"/>
<path d="M72.0637 33.8849C72.1603 33.9168 72.3534 33.9168 72.4661 33.8849C72.5626 33.8371 72.4822 33.8052 72.2569 33.8052C72.0316 33.8052 71.9511 33.8371 72.0637 33.8849Z" fill="black"/>
<path d="M72.8203 34.2517C72.8686 34.3314 73.0135 34.4111 73.1261 34.4111C73.2388 34.4111 73.4963 34.5865 73.7055 34.8098C73.9147 35.033 74.1561 35.2084 74.2365 35.2084C74.317 35.2084 74.0756 34.9533 73.7055 34.6503C73.0617 34.1241 72.6111 33.9168 72.8203 34.2517Z" fill="black"/>
<path d="M17.4116 35.049C17.4116 35.2722 17.4438 35.3519 17.4921 35.2403C17.5243 35.1446 17.5243 34.9533 17.4921 34.8417C17.4438 34.746 17.4116 34.8257 17.4116 35.049Z" fill="black"/>
<path d="M74.5907 35.2084C74.5425 35.3041 74.6068 35.32 74.7356 35.2722C75.0253 35.1606 75.0735 35.049 74.8482 35.049C74.7517 35.049 74.639 35.1127 74.5907 35.2084Z" fill="black"/>
<path d="M17.0898 35.6868C17.0898 35.91 17.122 35.9897 17.1703 35.8781C17.2025 35.7825 17.2025 35.5911 17.1703 35.4795C17.122 35.3838 17.0898 35.4635 17.0898 35.6868Z" fill="black"/>
<path d="M75.4756 36.4681C75.4756 36.5478 75.54 36.6754 75.6365 36.7232C75.717 36.7711 75.9745 37.2016 76.1837 37.6481C76.409 38.1105 76.586 38.3497 76.586 38.1743C76.6021 38.0148 76.4412 37.6162 76.2481 37.2973C75.8296 36.6116 75.4756 36.2449 75.4756 36.4681Z" fill="black"/>
<path d="M76.8276 40.7096C76.8276 41.7621 76.8437 42.1766 76.8759 41.6185C76.9081 41.0764 76.9081 40.2153 76.8759 39.7051C76.8437 39.2108 76.8276 39.6572 76.8276 40.7096Z" fill="black"/>
<path d="M16.9287 39.5137C16.9287 39.737 16.9609 39.8167 17.0092 39.7051C17.0414 39.6094 17.0414 39.4181 17.0092 39.3064C16.9609 39.2108 16.9287 39.2905 16.9287 39.5137Z" fill="black"/>
<path d="M16.9291 40.5661C16.8165 40.6937 16.8004 40.7894 16.8809 40.7894C17.0418 40.7894 17.2832 40.4864 17.2027 40.3907C17.1705 40.3748 17.0418 40.4386 16.9291 40.5661Z" fill="black"/>
<path d="M15.722 41.5388C15.6577 41.5867 15.6094 41.7142 15.6094 41.8099C15.6094 41.9056 15.6898 41.8896 15.8025 41.778C15.8991 41.6823 15.9473 41.5548 15.9151 41.5069C15.8669 41.4591 15.7703 41.475 15.722 41.5388Z" fill="black"/>
<path d="M14.7565 42.8623C14.6117 43.1174 14.4668 43.5639 14.4185 43.8509C14.3703 44.1379 14.3703 44.2655 14.4185 44.1379C14.4829 44.0104 14.6117 43.6755 14.7243 43.4204C15.1749 42.352 15.191 41.9693 14.7565 42.8623Z" fill="black"/>
<path d="M75.9585 44.3771C75.9585 44.5047 75.9907 44.6163 76.0229 44.6163C76.0551 44.6163 76.1194 44.5047 76.1838 44.3771C76.2321 44.2496 76.1999 44.1379 76.1194 44.1379C76.0229 44.1379 75.9585 44.2496 75.9585 44.3771Z" fill="black"/>
<path d="M14 45.1744C14 45.302 14.0322 45.4136 14.0644 45.4136C14.0966 45.4136 14.1609 45.302 14.2253 45.1744C14.2736 45.0468 14.2414 44.9352 14.1609 44.9352C14.0644 44.9352 14 45.0468 14 45.1744Z" fill="black"/>
<path d="M14.0483 46.6892C14.0483 47.0879 14.0805 47.2473 14.1127 47.04C14.1449 46.8487 14.1449 46.5298 14.1127 46.3225C14.0805 46.1311 14.0483 46.2906 14.0483 46.6892Z" fill="black"/>
<path d="M74.832 46.3863C74.832 46.466 74.9125 46.4979 74.993 46.45C75.0895 46.4022 75.1539 46.3225 75.1539 46.2746C75.1539 46.2428 75.0895 46.2109 74.993 46.2109C74.9125 46.2109 74.832 46.2906 74.832 46.3863Z" fill="black"/>
<path d="M77.0044 48.1243C77.1653 48.2997 77.3262 48.4114 77.3745 48.3635C77.4872 48.2679 77.0848 47.8054 76.8756 47.8054C76.7952 47.8054 76.8434 47.9489 77.0044 48.1243Z" fill="black"/>
<path d="M14.0483 49.4797C14.0483 50.0059 14.0805 50.1973 14.1127 49.9102C14.1449 49.6232 14.1449 49.1927 14.1127 48.9535C14.0805 48.7143 14.0483 48.9535 14.0483 49.4797Z" fill="black"/>
<path d="M77.7285 48.8897C77.7285 48.9695 77.8412 49.1289 77.9699 49.2405C78.0987 49.3522 78.2113 49.3681 78.2113 49.2724C78.2113 49.1927 78.0987 49.0332 77.9699 48.9216C77.8412 48.81 77.7285 48.7941 77.7285 48.8897Z" fill="black"/>
<path d="M78.5654 50.5162C78.5654 50.7394 78.5976 50.8191 78.6459 50.7075C78.6781 50.6118 78.6781 50.4205 78.6459 50.3089C78.5976 50.2132 78.5654 50.2929 78.5654 50.5162Z" fill="black"/>
<path d="M78.8232 51.744C78.9036 53.0675 78.968 53.1791 79.0002 52.0629C79.0002 51.4729 78.968 50.9945 78.8875 50.9945C78.8232 50.9945 78.791 51.3294 78.8232 51.744Z" fill="black"/>
<path d="M14.4991 52.3021C14.483 52.6369 14.5473 52.908 14.6278 52.908C14.7083 52.908 14.8048 53.0037 14.8531 53.0994C14.9497 53.3704 14.8209 52.7964 14.6439 52.1905L14.5152 51.7121L14.4991 52.3021Z" fill="black"/>
<path d="M78.8872 53.5458C78.8872 53.7691 78.9194 53.8488 78.9677 53.7372C78.9999 53.6415 78.9999 53.4502 78.9677 53.3385C78.9194 53.2429 78.8872 53.3226 78.8872 53.5458Z" fill="black"/>
<path d="M78.5654 54.5026C78.5654 54.7258 78.5976 54.8055 78.6459 54.6939C78.6781 54.5983 78.6781 54.4069 78.6459 54.2953C78.5976 54.1996 78.5654 54.2793 78.5654 54.5026Z" fill="black"/>
<path d="M15.3034 54.5982C15.3034 54.7736 15.3517 54.8215 15.4 54.6939C15.4483 54.5823 15.4322 54.4388 15.3839 54.391C15.3356 54.3272 15.2874 54.4228 15.3034 54.5982Z" fill="black"/>
<path d="M15.6255 54.9809C15.6255 55.1085 15.6899 55.3636 15.7703 55.539C15.8508 55.7463 15.9152 55.7623 15.9152 55.6188C15.9152 55.4912 15.8508 55.2361 15.7703 55.0607C15.6899 54.8534 15.6255 54.8374 15.6255 54.9809Z" fill="black"/>
<path d="M16.9773 57.2133C17.0256 57.2931 17.106 57.3728 17.1543 57.3728C17.1865 57.3728 17.2187 57.2931 17.2187 57.2133C17.2187 57.1177 17.1382 57.0539 17.0416 57.0539C16.9612 57.0539 16.929 57.1177 16.9773 57.2133Z" fill="black"/>
<path d="M76.8755 57.5482C76.618 57.8033 76.4893 58.0106 76.5697 58.0106C76.7467 58.0106 77.487 57.2452 77.3905 57.1495C77.3583 57.1177 77.1169 57.2931 76.8755 57.5482Z" fill="black"/>
<path d="M17.3794 57.6757C17.3794 57.7555 17.4599 57.883 17.5403 57.9309C17.6369 57.9787 17.7013 57.9628 17.7013 57.8671C17.7013 57.7874 17.6369 57.6598 17.5403 57.612C17.4599 57.5641 17.3794 57.5801 17.3794 57.6757Z" fill="black"/>
<path d="M75.733 58.6963C75.2985 59.1268 75.2502 59.2544 75.4272 59.4138C75.5882 59.5733 75.6364 59.5573 75.6364 59.3341C75.6364 59.1906 75.8296 58.8557 76.071 58.6165C76.6825 57.9947 76.3767 58.0584 75.733 58.6963Z" fill="black"/>
<path d="M18.4576 58.6644C18.6507 58.8557 18.8599 58.9833 18.9082 58.9354C18.9564 58.8876 18.7955 58.7282 18.5541 58.5687L18.1035 58.2976L18.4576 58.6644Z" fill="black"/>
<path d="M19.4396 59.3979C19.8902 59.8444 20.2764 60.1314 20.2764 60.0357C20.2764 59.8922 19.4235 59.1268 19.2786 59.1268C19.1982 59.1268 19.2786 59.2544 19.4396 59.3979Z" fill="black"/>
<path d="M20.6945 60.1952C20.775 60.2749 20.8876 60.3865 20.952 60.4822C21.0164 60.5778 21.0808 60.5141 21.0808 60.3546C21.0808 60.2111 20.9681 60.0835 20.8072 60.0835C20.6623 60.0835 20.6141 60.1314 20.6945 60.1952Z" fill="black"/>
<path d="M76.0068 61.5984C76.0068 62.2043 76.039 62.4435 76.0712 62.1086C76.1034 61.7897 76.1034 61.2795 76.0712 60.9924C76.039 60.7214 76.0068 60.9765 76.0068 61.5984Z" fill="black"/>
<path d="M23.4304 64.1337C23.4787 64.2613 23.6557 64.3888 23.8327 64.4367C24.2029 64.5324 24.0902 64.2932 23.6557 64.0699C23.3982 63.9424 23.366 63.9583 23.4304 64.1337Z" fill="black"/>
<path d="M75.1538 64.5483C75.1538 64.628 75.2343 64.7078 75.3147 64.7078C75.4113 64.7078 75.4757 64.628 75.4757 64.5483C75.4757 64.4526 75.4113 64.3888 75.3147 64.3888C75.2343 64.3888 75.1538 64.4526 75.1538 64.5483Z" fill="black"/>
<path d="M24.863 65.0267C24.9113 65.1064 25.201 65.218 25.5068 65.2818C25.8286 65.3296 26.1183 65.4412 26.1666 65.521C26.2148 65.6007 26.3275 65.6645 26.4401 65.6645C26.7298 65.6645 26.0217 65.2021 25.716 65.1861C25.555 65.1861 25.4263 65.1064 25.4263 65.0267C25.4263 64.931 25.2814 64.8672 25.0883 64.8672C24.9113 64.8672 24.7987 64.931 24.863 65.0267Z" fill="black"/>
<path d="M74.6227 65.4891C74.5583 65.7602 74.5744 65.8239 74.7032 65.6964C74.7836 65.6167 74.8319 65.4413 74.7997 65.3296C74.7515 65.2021 74.6871 65.2818 74.6227 65.4891Z" fill="black"/>
<path d="M27.647 65.7761C27.9206 65.808 28.4034 65.808 28.6931 65.7761C28.9667 65.7442 28.7414 65.7123 28.162 65.7123C27.5827 65.7123 27.3574 65.7442 27.647 65.7761Z" fill="black"/>
<path d="M29.5779 66.0631C29.6101 66.2864 29.6745 66.4618 29.7067 66.4618C29.7389 66.4618 29.7711 66.2864 29.7711 66.0631C29.7711 65.8399 29.7067 65.6645 29.6262 65.6645C29.5618 65.6645 29.5297 65.8399 29.5779 66.0631Z" fill="black"/>
<path d="M73.9308 66.4937L73.625 66.8604L73.9951 66.5574C74.1883 66.382 74.3492 66.2226 74.3492 66.1907C74.3492 66.0631 74.2204 66.1588 73.9308 66.4937Z" fill="black"/>
<path d="M29.9319 67.9766C29.9319 68.1998 29.8515 68.3752 29.7549 68.3752C29.6262 68.3752 29.6262 68.439 29.7388 68.5666C29.8354 68.6782 29.9319 68.9812 29.9802 69.2522C30.0124 69.5074 30.0607 69.2522 30.0768 68.6463C30.0768 68.0563 30.0607 67.578 30.0124 67.578C29.9641 67.578 29.9319 67.7534 29.9319 67.9766Z" fill="black"/>
<path d="M71.2912 68.6942C71.1625 68.7739 71.0981 68.8696 71.1464 68.9174C71.1947 68.9652 71.3717 68.9014 71.5487 68.7739C71.8867 68.5187 71.6775 68.455 71.2912 68.6942Z" fill="black"/>
<path d="M70.4544 69.1247C70.5509 69.1566 70.744 69.1566 70.8567 69.1247C70.9532 69.0769 70.8728 69.045 70.6475 69.045C70.4222 69.045 70.3417 69.0769 70.4544 69.1247Z" fill="black"/>
<path d="M67.6706 69.332C67.6224 69.4117 67.6545 69.4914 67.735 69.4914C67.8316 69.4914 67.912 69.4117 67.912 69.332C67.912 69.2363 67.8798 69.1725 67.8477 69.1725C67.7994 69.1725 67.7189 69.2363 67.6706 69.332Z" fill="black"/>
<path d="M66.8337 70.5279C66.7855 70.6714 66.7855 70.8309 66.8498 70.8787C66.8981 70.9425 66.9464 70.8628 66.9464 70.7192C66.9464 70.5917 67.0429 70.4322 67.1556 70.4003C67.3004 70.3366 67.3004 70.3047 67.1395 70.3047C67.0268 70.2887 66.8981 70.4003 66.8337 70.5279Z" fill="black"/>
<path d="M65.9001 71.5644C65.8518 71.6441 65.884 71.7238 65.9645 71.7238C66.0611 71.7238 66.1415 71.6441 66.1415 71.5644C66.1415 71.4687 66.1093 71.4049 66.0771 71.4049C66.0289 71.4049 65.9484 71.4687 65.9001 71.5644Z" fill="black"/>
<path d="M30.3666 72.3297C30.4793 73.43 30.5436 73.5097 30.5597 72.5689C30.5758 72.1225 30.5115 71.7079 30.431 71.66C30.3505 71.6122 30.3344 71.9152 30.3666 72.3297Z" fill="black"/>
<path d="M65.3691 71.9789C65.2564 72.1065 65.2403 72.2022 65.3208 72.2022C65.4817 72.2022 65.7231 71.8992 65.6427 71.8035C65.6105 71.7876 65.4817 71.8514 65.3691 71.9789Z" fill="black"/>
<path d="M63.9532 72.9197C63.6313 73.1589 63.7761 73.2068 64.275 73.0154C64.452 72.9516 64.5164 72.856 64.4199 72.7922C64.3394 72.7443 64.1141 72.7922 63.9532 72.9197Z" fill="black"/>
<path d="M63.0517 73.43C63.1644 73.4778 63.3092 73.4619 63.3575 73.414C63.4219 73.3662 63.3253 73.3184 63.1483 73.3343C62.9713 73.3343 62.923 73.3821 63.0517 73.43Z" fill="black"/>
<path d="M62.408 73.7489C62.5045 73.7808 62.6977 73.7808 62.8103 73.7489C62.9069 73.7011 62.8264 73.6692 62.6011 73.6692C62.3758 73.6692 62.2953 73.7011 62.408 73.7489Z" fill="black"/>
<path d="M58.9482 74.0359C58.6424 74.3708 58.6907 74.5143 59.0287 74.2273C59.1735 74.0838 59.6724 73.9562 60.1069 73.9084L60.9116 73.8605L60.0264 73.8286C59.4471 73.8127 59.0769 73.8924 58.9482 74.0359Z" fill="black"/>
<path d="M61.3135 73.8605C61.3135 73.8924 61.4261 73.9562 61.5549 74.02C61.6836 74.0678 61.7963 74.0359 61.7963 73.9562C61.7963 73.8605 61.6836 73.7967 61.5549 73.7967C61.4261 73.7967 61.3135 73.8286 61.3135 73.8605Z" fill="black"/>
<path d="M30.769 74.4346C30.769 74.7375 30.8012 74.8651 30.8495 74.7056C30.8817 74.5621 30.8817 74.307 30.8495 74.1475C30.8012 74.004 30.769 74.1316 30.769 74.4346Z" fill="black"/>
<path d="M58.3848 74.8332C58.2722 74.9767 58.0308 75.2318 57.8698 75.3913C57.6928 75.5667 57.5963 75.7102 57.6606 75.7102C57.7894 75.7102 58.7389 74.7854 58.7389 74.6737C58.7389 74.5302 58.594 74.594 58.3848 74.8332Z" fill="black"/>
<path d="M57.081 76.1567C56.6786 76.5872 56.743 76.7307 57.1614 76.348C57.3546 76.1726 57.4672 75.9972 57.4189 75.9494C57.3867 75.9016 57.2258 75.9972 57.081 76.1567Z" fill="black"/>
<path d="M31.2197 76.8902C31.2197 77.0178 31.2841 77.1613 31.3646 77.2091C31.445 77.2729 31.4772 77.1613 31.4289 76.9859C31.3324 76.6191 31.2197 76.5713 31.2197 76.8902Z" fill="black"/>
<path d="M55.6489 77.2569C55.7616 77.3048 55.9064 77.2888 55.9547 77.241C56.0191 77.1932 55.9225 77.1453 55.7455 77.1613C55.5684 77.1613 55.5202 77.2091 55.6489 77.2569Z" fill="black"/>
<path d="M54.9731 77.5599C54.7961 77.6715 54.6995 77.815 54.7317 77.8629C54.78 77.9107 54.957 77.831 55.134 77.7194C55.295 77.5918 55.4076 77.4483 55.3593 77.4164C55.3111 77.3685 55.134 77.4323 54.9731 77.5599Z" fill="black"/>
<path d="M54.2326 78.102C54.0877 78.1977 54.0716 78.2615 54.1843 78.2615C54.2808 78.2615 54.4257 78.1818 54.474 78.102C54.6027 77.9107 54.5383 77.9107 54.2326 78.102Z" fill="black"/>
<path d="M32.2817 78.5804C32.0243 78.6601 32.0082 78.708 32.2174 78.7718C32.4749 78.8834 32.9416 78.6601 32.7323 78.5485C32.6519 78.5007 32.4427 78.5166 32.2817 78.5804Z" fill="black"/>
<path d="M53.6534 78.5645C53.7178 78.6442 53.6534 78.7558 53.5568 78.7877C53.4281 78.8355 53.4603 78.8834 53.6373 78.8834C53.7821 78.8993 53.9109 78.7877 53.9109 78.6601C53.9109 78.5326 53.8304 78.421 53.7338 78.421C53.6534 78.421 53.6051 78.4847 53.6534 78.5645Z" fill="black"/>
<path d="M52.6072 79.1704C52.4141 79.4255 52.4141 79.4415 52.6233 79.282C52.7521 79.1863 52.9774 79.0588 53.1061 79.0109C53.3153 78.9312 53.2992 78.9153 53.09 78.9153C52.9452 78.8993 52.7199 79.0269 52.6072 79.1704Z" fill="black"/>
<path d="M33.4727 79.4415C33.4727 79.6328 34.7923 80.3504 35.0337 80.2866C35.259 80.2228 35.259 80.2069 34.9693 80.1909C34.7601 80.1909 34.5992 80.0953 34.5992 80.0155C34.5992 79.9198 34.5026 79.8561 34.3739 79.8561C34.2612 79.8561 34.0681 79.7444 33.9554 79.6169C33.7784 79.4096 33.4727 79.282 33.4727 79.4415Z" fill="black"/>
<path d="M50.982 79.9198C50.7406 80.0474 50.4187 80.175 50.2578 80.2069C50.0647 80.2547 50.1451 80.3025 50.4509 80.3504C50.805 80.3982 51.0303 80.3185 51.2877 80.0634C51.7062 79.6488 51.6096 79.6009 50.982 79.9198Z" fill="black"/>
<path d="M35.2749 80.8128C35.2749 81.036 35.3071 81.1158 35.3554 81.0041C35.3876 80.9085 35.3876 80.7171 35.3554 80.6055C35.3071 80.5098 35.2749 80.5896 35.2749 80.8128Z" fill="black"/>
<path d="M49.0991 80.9244C49.0991 81.2114 49.0186 81.4506 48.9542 81.4506C48.8738 81.4506 48.7289 81.626 48.6324 81.8493C48.3588 82.4392 48.6645 82.3276 48.9864 81.7217C49.1473 81.4347 49.2439 81.036 49.1956 80.8128C49.1312 80.4779 49.1312 80.4939 49.0991 80.9244Z" fill="black"/>
<path d="M49.5337 80.6055C49.6463 80.6533 49.7912 80.6374 49.8394 80.5896C49.9038 80.5417 49.8073 80.4939 49.6302 80.5098C49.4532 80.5098 49.4049 80.5577 49.5337 80.6055Z" fill="black"/>
<path d="M36.852 81.2752C36.7554 81.4666 36.7393 81.6101 36.8359 81.6101C36.9968 81.6101 37.2221 81.1317 37.1095 81.0201C37.0773 80.9723 36.9646 81.0998 36.852 81.2752Z" fill="black"/>
<path d="M38.7832 81.626C38.7832 81.7057 38.8637 81.7376 38.9441 81.6898C39.0407 81.642 39.1051 81.5622 39.1051 81.5144C39.1051 81.4825 39.0407 81.4506 38.9441 81.4506C38.8637 81.4506 38.7832 81.5303 38.7832 81.626Z" fill="black"/>
<path d="M39.6201 81.5941C39.6844 81.8971 40.5535 82.7741 40.6661 82.6625C40.7144 82.6147 40.4891 82.3117 40.1672 81.9768C39.8293 81.642 39.5879 81.4666 39.6201 81.5941Z" fill="black"/>
<path d="M46.6367 81.5622C46.7494 81.6101 46.8942 81.5941 46.9425 81.5463C47.0068 81.4985 46.9103 81.4506 46.7333 81.4666C46.5562 81.4666 46.508 81.5144 46.6367 81.5622Z" fill="black"/>
<path d="M43.9816 81.8493C43.7241 82.1363 43.708 82.3755 43.9655 82.1203C44.0782 82.0087 44.3357 81.929 44.5771 81.913C44.9472 81.913 44.9472 81.8971 44.6575 81.7695C44.223 81.5782 44.2069 81.5941 43.9816 81.8493Z" fill="black"/>
<path d="M47.1519 81.7536C47.1519 81.8493 47.2162 81.9609 47.3128 82.0087C47.4093 82.0566 47.4254 81.9928 47.3772 81.8652C47.2645 81.5782 47.1519 81.5303 47.1519 81.7536Z" fill="black"/>
<path d="M45.6714 81.8812C45.784 81.929 45.9289 81.913 45.9771 81.8652C46.0415 81.8174 45.945 81.7695 45.7679 81.7855C45.5909 81.7855 45.5426 81.8333 45.6714 81.8812Z" fill="black"/>
<path d="M41.4067 82.0884C41.4389 82.216 41.5999 82.3436 41.7769 82.3595C41.9861 82.3914 42.0183 82.3755 41.8412 82.2957C41.7125 82.2479 41.5355 82.1203 41.4711 82.0247C41.3745 81.913 41.3585 81.929 41.4067 82.0884Z" fill="black"/>
<path d="M47.6827 82.3595C47.8275 82.3914 48.0528 82.3914 48.1655 82.3595C48.262 82.3117 48.1494 82.2798 47.8758 82.2798C47.6183 82.2798 47.5218 82.3117 47.6827 82.3595Z" fill="black"/>
<path d="M43.9331 82.7422C43.9331 82.8219 44.0136 82.8538 44.094 82.806C44.1906 82.7582 44.255 82.6784 44.255 82.6306C44.255 82.5987 44.1906 82.5668 44.094 82.5668C44.0136 82.5668 43.9331 82.6465 43.9331 82.7422Z" fill="black"/>
<path d="M42.6138 82.8379C42.7264 82.8857 42.8712 82.8698 42.9195 82.8219C42.9839 82.7741 42.8873 82.7263 42.7103 82.7422C42.5333 82.7422 42.485 82.7901 42.6138 82.8379Z" fill="black"/>
</svg>
